<svg xmlns="http://www.w3.org/2000/svg" viewBox="0 0 32 32" width="32" height="32">
  <!-- Background circle with gradient -->
  <defs>
    <linearGradient id="grad" x1="0%" y1="0%" x2="100%" y2="100%">
      <stop offset="0%" style="stop-color:#0366d6;stop-opacity:1" />
      <stop offset="100%" style="stop-color:#0052cc;stop-opacity:1" />
    </linearGradient>
  </defs>
  
  <!-- Background -->
  <circle cx="16" cy="16" r="16" fill="url(#grad)"/>
  
  <!-- Letter A -->
  <path d="M8 24 L12 12 L14.5 12 L18.5 24 L16.5 24 L15.8 21.5 L10.7 21.5 L10 24 Z M11.5 19.5 L15 19.5 L13.25 14.8 Z" fill="white" font-weight="bold"/>
  
  <!-- Letter U -->
  <path d="M19.5 12 L19.5 19 C19.5 20.5 20.5 21.5 22 21.5 C23.5 21.5 24.5 20.5 24.5 19 L24.5 12 L26.5 12 L26.5 19 C26.5 21.7 24.7 23.5 22 23.5 C19.3 23.5 17.5 21.7 17.5 19 L17.5 12 Z" fill="white" font-weight="bold"/>
</svg>